<?xml version="1.0" encoding="utf-8"?><svg xmlns="http://www.w3.org/2000/svg" xmlns:xlink="http://www.w3.org/1999/xlink"><symbol viewBox="0 0 35.47 43.19" id="fig1"><path class="agrammotnosti" d="M32.55 0H8.84a2.88 2.88 0 0 0-2.92 2.84A2.88 2.88 0 0 0 3 5.68a2.88 2.88 0 0 0-3 2.94v31.74a2.88 2.88 0 0 0 2.92 2.84h23.71a2.88 2.88 0 0 0 2.92-2.84 2.88 2.88 0 0 0 2.92-2.84 2.88 2.88 0 0 0 2.92-2.84V2.84A2.88 2.88 0 0 0 32.55 0zm-5.93 41.84H2.92a1.51 1.51 0 0 1-1.53-1.49V28.77h26.77v11.59a1.51 1.51 0 0 1-1.53 1.48zm1.53-14.43H1.39V8.62a1.51 1.51 0 0 1 1.53-1.49h23.71a1.51 1.51 0 0 1 1.53 1.49v18.8zm3 10.05a1.51 1.51 0 0 1-1.53 1.49V25.88h1.57v11.59zm0-12.94h-1.57V8.62a2.88 2.88 0 0 0-2.92-2.84H4.35a1.51 1.51 0 0 1 1.53-1.49h23.71a1.51 1.51 0 0 1 1.53 1.49v18.8zm3 10.05a1.51 1.51 0 0 1-1.53 1.49V23h1.57v11.59zm0-12.94h-1.57V5.73a2.88 2.88 0 0 0-2.92-2.84H7.32A1.51 1.51 0 0 1 8.85 1.4h23.71a1.51 1.51 0 0 1 1.53 1.49v18.8zm-21.3-10a2.17 2.17 0 0 0-2.1-1.55H9.3a2.17 2.17 0 0 0-2.1 1.55L3.8 23.56a.67.67 0 0 0 .48.83.7.7 0 0 0 .86-.47l.89-3.11h8l.89 3.11a.69.69 0 0 0 .67.5h.19a.67.67 0 0 0 .48-.83zm-6.44 7.83L8.54 12a.79.79 0 0 1 .76-.56h1.45a.79.79 0 0 1 .76.56l2.13 7.46H6.41zm18.8 3.61v-6.49a.695.695 0 0 0-1.39 0v.29a4.07 4.07 0 0 0-2.64-1 4 4 0 0 0-4 3.92v.72a4 4 0 0 0 4 3.92 4.07 4.07 0 0 0 2.7-1 1.43 1.43 0 0 0 1.38 1 .68.68 0 1 0-.12-1.34zm-1.44-2.57a2.64 2.64 0 0 1-5.28 0v-.72a2.64 2.64 0 0 1 5.28 0v.72zm.69 11.23H5.14a.68.68 0 1 0 0 1.35H24.4a.68.68 0 1 0 0-1.34zM17 37.52H5.14a.68.68 0 1 0 0 1.35H17a.68.68 0 1 0 0-1.35zm-7.41-1.53a.68.68 0 1 0 0-1.35H5.14a.68.68 0 1 0 0 1.35h4.45zm14.82-1.35H12.55a.68.68 0 1 0 0 1.35H24.4a.68.68 0 1 0 0-1.36z"/></symbol><symbol viewBox="0 0 36.34 43.19" id="fig2"><path class="blang" d="M35.38 5.42a1.16 1.16 0 0 0 0-2.28L18.29.01a.69.69 0 0 0-.25 0L.95 3.14a1.16 1.16 0 0 0 0 2.28l7.73 1.42-.42 3.36a2.81 2.81 0 0 0 .18 1.4A17.15 17.15 0 0 0 .72 25.93a17.44 17.44 0 0 0 34.88 0 17 17 0 0 0-1.46-6.91v-3.19a2.1 2.1 0 0 0-.57-1.44 2.1 2.1 0 0 0 .57-1.44 2.12 2.12 0 0 0-1.46-2v-5zM9.23 12.7a2.88 2.88 0 0 0 1.23.62l.65.15a18.35 18.35 0 0 0-1.46 3q-1.86-.37-3.69-.91a16.14 16.14 0 0 1 3.27-2.86zm.39-2.34l.41-3.28 7.45 1.37v5.04h-.15l-6.57-1.5a1.49 1.49 0 0 1-1.15-1.63zM5.06 16.7q2 .63 4.15 1.05a27.35 27.35 0 0 0-1.18 7.49H2.12a15.73 15.73 0 0 1 2.93-8.53zm0 18.43a15.72 15.72 0 0 1-3-8.54h5.91a27.25 27.25 0 0 0 1.18 7.49q-2.04.41-4.09 1.06zm.9 1.14q1.82-.53 3.68-.9a18.86 18.86 0 0 0 1.23 2.61 13 13 0 0 0 2.38 3.09 16.13 16.13 0 0 1-7.28-4.79zm11.51 5.51c-2-.29-3.93-1.85-5.42-4.47a17.37 17.37 0 0 1-1-2.2 43.52 43.52 0 0 1 6.47-.59v7.25zm0-8.6a44.9 44.9 0 0 0-6.93.64 25.78 25.78 0 0 1-1.16-7.23h8.1v6.59zm0-7.94h-8.1a25.89 25.89 0 0 1 1.16-7.23 44.88 44.88 0 0 0 6.93.64v6.59zm0-7.94a43.5 43.5 0 0 1-6.47-.59 16.38 16.38 0 0 1 1.5-2.94l4.51 1 .45.08v2.41zm1.37 24.48v-7.25a43.53 43.53 0 0 1 6.47.59 17.38 17.38 0 0 1-1 2.2c-1.54 2.62-3.44 4.17-5.46 4.47zm11-28.65a17.5 17.5 0 0 0-2-1.54 2.81 2.81 0 0 0 .18-1.4l-.42-3.36 3.68-.67v4.77a2.12 2.12 0 0 0-1.46 2c.05.08.05.14.06.21zm.1 2a2.09 2.09 0 0 0-.11.56q-1.58.44-3.19.76a18.35 18.35 0 0 0-1.46-3l.65-.15a2.88 2.88 0 0 0 1.23-.62 16.13 16.13 0 0 1 2.92 2.46zm-4.66 1.58a43.53 43.53 0 0 1-6.47.59v-2.41l.45-.08 4.51-1a16.37 16.37 0 0 1 1.55 2.91zm.24-4.72l-6.57 1.5h-.15v-5l7.45-1.37.41 3.28a1.49 1.49 0 0 1-1.1 1.6zm.22 6a25.87 25.87 0 0 1 1.17 7.23h-8.1v-6.59a44.92 44.92 0 0 0 6.97-.61zm1.17 8.59a25.78 25.78 0 0 1-1.16 7.23 44.89 44.89 0 0 0-6.93-.64v-6.59h8.1zm-3.87 14.48a13 13 0 0 0 2.38-3.09 18.87 18.87 0 0 0 1.23-2.61q1.86.37 3.68.9a16.13 16.13 0 0 1-7.26 4.82zm8.19-5.94q-2-.62-4.13-1.05a27.25 27.25 0 0 0 1.18-7.49h5.91a15.72 15.72 0 0 1-2.93 8.56zm3-9.89h-5.91a27.36 27.36 0 0 0-1.18-7.49q1.38-.28 2.74-.65v2.32a.68.68 0 0 0 .68.68h2.58a15.61 15.61 0 0 1 1.08 5.16zm-1.44-6.49h-1.55v-2.93a.775.775 0 0 1 1.55 0v2.93zm0-5.82a.77.77 0 1 1-.77-.77.77.77 0 0 1 .76.79zM18.17 7.18L2.25 4.26l15.92-2.92 15.92 2.92z"/></symbol><symbol viewBox="0 0 43.26 29.37" id="fig3"><path class="cstudent" d="M21.63 32.37a2.17 2.17 0 1 0-2.12-2.17 2.15 2.15 0 0 0 2.12 2.17zm0-3a.78.78 0 1 1-.77.78.78.78 0 0 1 .77-.73zm20.23 6h-8.7v-9.93a3.63 3.63 0 0 0-2.2-3.36l-4.65-2a17.08 17.08 0 0 0 4-1.27 1.68 1.68 0 0 0 .95-1.52c0-5.46-.63-9.3-1.84-12.07-1.54-3.5-4.15-5.27-7.77-5.27s-6.24 1.77-7.77 5.27c-1.22 2.77-1.8 6.6-1.84 12.07a1.68 1.68 0 0 0 .95 1.52 17.08 17.08 0 0 0 4 1.27l-4.65 2a3.63 3.63 0 0 0-2.2 3.36v9.93h-8.7a1.42 1.42 0 0 0-1.4 1.43v1.48a1.42 1.42 0 0 0 1.4 1.43H41.9a1.42 1.42 0 0 0 1.4-1.43V36.8a1.42 1.42 0 0 0-1.44-1.39zM27.26 22l3.21 1.37a2.25 2.25 0 0 1 1.36 2.09v9.93h-1.7a2.2 2.2 0 0 0 .14-.78v-8.85a2.15 2.15 0 0 0-2.12-2.17h-2.3A17.86 17.86 0 0 0 27.26 22zm-8.12-2.64V19l.95.54a3.15 3.15 0 0 0 3.14 0l.95-.54v.42a2 2 0 0 0 1.2 1.84l.58.25a15.52 15.52 0 0 1-2.14 2.14H19.5a15.5 15.5 0 0 1-2.14-2.14l.58-.25a2 2 0 0 0 1.18-1.88zm-1.72-3a1.92 1.92 0 0 1-1-1.5l-.46-5.12c1.73-.2 6.33-.85 9.17-2.27a5 5 0 0 0 2.14 2.1l-.47 5.29a1.92 1.92 0 0 1-1 1.5l-3.33 1.89a1.83 1.83 0 0 1-1.82 0zm10.74 8.59a.78.78 0 0 1 .77.78v8.85a.78.78 0 0 1-.77.78h-13a.78.78 0 0 1-.77-.78v-8.85a.78.78 0 0 1 .77-.78h13zm-14.6-7.38a.29.29 0 0 1-.17-.26c0-5.27.59-8.92 1.72-11.51 1.32-3 3.46-4.45 6.54-4.45s5.22 1.46 6.54 4.45c1.14 2.59 1.69 6.25 1.72 11.51a.29.29 0 0 1-.17.26 16.28 16.28 0 0 1-4.22 1.27v-.64l1-.58a3.3 3.3 0 0 0 1.65-2.59l.52-5.8a.69.69 0 0 0-.46-.72 3.76 3.76 0 0 1-2.13-2.17.69.69 0 0 0-.41-.43.67.67 0 0 0-.58.06c-3 1.85-9.86 2.51-9.93 2.51a.69.69 0 0 0-.61.75l.52 5.8a3.3 3.3 0 0 0 1.65 2.59l1 .58v.69a16.29 16.29 0 0 1-4.2-1.28zm-2.08 7.87a2.25 2.25 0 0 1 1.36-2.09l3.21-1.37a17.85 17.85 0 0 0 1.4 1.58h-2.3a2.15 2.15 0 0 0-2.12 2.17v8.85a2.2 2.2 0 0 0 .14.78h-1.7v-9.93zm30.41 12.88H1.43v-1.48h40.46v1.48lNaN NaNz"/></symbol><symbol viewBox="0 0 43.26 29.37" id="fig4"><path class="dreading" d="M41.14 2.9h-.77v-.79a.67.67 0 0 0-.53-.66A61.72 61.72 0 0 0 28.13 0c-3.81 0-5.7.79-6.5 1.28C20.83.79 18.94 0 15.13 0A61.73 61.73 0 0 0 3.42 1.45a.67.67 0 0 0-.53.66v.79h-.77A2.12 2.12 0 0 0 0 5.01v22.25a2.12 2.12 0 0 0 2.12 2.11h39a2.12 2.12 0 0 0 2.12-2.11V5.01a2.12 2.12 0 0 0-2.1-2.11zm-18.83-.46c.7-.45 2.54-1.09 5.82-1.09a59.77 59.77 0 0 1 10.88 1.31v20.19a59.56 59.56 0 0 0-10.88-1.27 14.75 14.75 0 0 0-5.82.93V2.44zm0 21.57c.7-.45 2.54-1.09 5.82-1.09a59.77 59.77 0 0 1 10.88 1.31v.94h-16.7v-1.15zM4.25 2.66a59.72 59.72 0 0 1 10.88-1.29c3.28 0 5.12.65 5.82 1.09v20.06a14.75 14.75 0 0 0-5.82-.93 59.56 59.56 0 0 0-10.88 1.27V2.65zm0 21.57a59.71 59.71 0 0 1 10.88-1.31c3.28 0 5.12.65 5.82 1.09v1.15H4.25v-.94zm14.53 3.79H2.12a.77.77 0 0 1-.77-.76V5.01a.77.77 0 0 1 .77-.76h.77v21.58a.68.68 0 0 0 .68.67h15.21v1.53zm4.33 0h-3v-1.53h3v1.53zm18.78-.76a.77.77 0 0 1-.77.76H24.48v-1.53H39.7a.68.68 0 0 0 .68-.67V4.25h.77a.77.77 0 0 1 .77.76v22.25zm-27.69-21a.68.68 0 0 0-.69-.66 53.85 53.85 0 0 0-7.32.75.672.672 0 0 0 .11 1.34h.11a52.55 52.55 0 0 1 7.13-.73.68.68 0 0 0 .68-.7zm2.15.78c.49 0 1 .11 1.38.2h.13a.67.67 0 0 0 .13-1.33c-.47-.09-1-.16-1.51-.22a.678.678 0 1 0-.12 1.35zm-10 6.39h.11c1.78-.29 3.46-.5 5-.62a.672.672 0 1 0-.11-1.34c-1.57.12-3.29.34-5.11.63a.67.67 0 0 0 .08 1.33zm11.56-.44a.67.67 0 0 0 .13-1.33 19.84 19.84 0 0 0-3.74-.32.675.675 0 1 0 0 1.35 18.48 18.48 0 0 1 3.48.3h.13zm-5.13 4.12a56.62 56.62 0 0 0-6.58.72.672.672 0 0 0 .11 1.34h.11a55.3 55.3 0 0 1 6.42-.71.676.676 0 1 0-.06-1.35zm2.88 1.35a16.23 16.23 0 0 1 2.08.25h.13a.67.67 0 0 0 .13-1.33 17.6 17.6 0 0 0-2.26-.28.686.686 0 1 0-.07 1.37zm14-11.52a52.53 52.53 0 0 1 7.13.73h.11a.672.672 0 0 0 .11-1.34 53.88 53.88 0 0 0-7.32-.75.685.685 0 1 0 .01 1.37zm-4.32.3h.13c.43-.08.9-.15 1.38-.2a.673.673 0 1 0-.13-1.34c-.53.05-1 .13-1.51.22a.671.671 0 0 0 .18 1.33zm11.67 4.85c-1.82-.3-3.54-.51-5.11-.63a.672.672 0 1 0-.11 1.34c1.54.12 3.22.33 5 .62h.11a.67.67 0 0 0 .16-1.32zm-11.67.9h.13a18.48 18.48 0 0 1 3.48-.3.675.675 0 1 0 0-1.35 19.85 19.85 0 0 0-3.74.32.671.671 0 0 0 .18 1.33zm11.67 4.85a56.62 56.62 0 0 0-6.58-.72.67.67 0 1 0-.06 1.34 55.23 55.23 0 0 1 6.42.71h.11a.67.67 0 0 0 .16-1.33zm-9.54-.71a17.6 17.6 0 0 0-2.26.28.67.67 0 0 0 .13 1.33h.13a16.19 16.19 0 0 1 2.08-.25.685.685 0 1 0-.04-1.37z"/></symbol><symbol viewBox="0 0 43.26 46.65" id="fig5"><path class="efantazia" d="M30.9 11.35a13.72 13.72 0 0 0-10.84-3.47 14 14 0 0 0-4.35 26.52 2.37 2.37 0 0 1 1.34 2.14v4.7a2.29 2.29 0 0 0 1.55 2.17v.95a2.28 2.28 0 0 0 2.27 2.29h1.55a2.28 2.28 0 0 0 2.27-2.29v-.93a2.29 2.29 0 0 0 1.55-2.17v-4.7a2.35 2.35 0 0 1 1.31-2.13 14 14 0 0 0 3.35-23.08zm-8.49 33.83h-1.55a.83.83 0 0 1-.82-.83v-.82h3.19v.83a.83.83 0 0 1-.82.83zm1.55-3.12h-4.65a.83.83 0 0 1-.82-.83v-2.39h6.29v2.39a.83.83 0 0 1-.82.84zm8.13-13.52a12.49 12.49 0 0 1-5.16 4.54 3.82 3.82 0 0 0-2.15 3.45v.9h-6.3v-.85a3.84 3.84 0 0 0-2.17-3.46A12.53 12.53 0 0 1 20.2 9.37a13 13 0 0 1 1.44-.08 12.25 12.25 0 0 1 8.28 3.19 12.57 12.57 0 0 1 2.16 16.08zm10.46-7.52H37.9a.73.73 0 0 0 0 1.46h4.65a.73.73 0 0 0-.01-1.44zm-36.44.73a.73.73 0 0 0-.73-.73H.73a.73.73 0 0 0 0 1.46h4.65a.73.73 0 0 0 .72-.71zM21.64 6.12a.73.73 0 0 0 .73-.73V.73a.73.73 0 1 0-1.45 0v4.7a.73.73 0 0 0 .71.71zm0 7.11a2.19 2.19 0 0 0-1.6.68 2.21 2.21 0 0 0-.61 1.63l.42 10.16a1.5 1.5 0 0 0 1.5 1.45h.58a1.5 1.5 0 0 0 1.5-1.45l.42-10.16a2.21 2.21 0 0 0-.61-1.63 2.19 2.19 0 0 0-1.61-.66zm.34 12.42h-.58l-.42-10.16a.76.76 0 0 1 .21-.56.76.76 0 0 1 1.1 0 .76.76 0 0 1 .21.56zm-.34 3.16a1.9 1.9 0 1 0 1.89 1.9 1.9 1.9 0 0 0-1.9-1.88zm0 2.34a.44.44 0 1 1 .44-.44.44.44 0 0 1-.45.46zm7.77-22.93a.72.72 0 0 0 1-.27l1.16-2a.73.73 0 0 0-.27-1 .72.72 0 0 0-1 .27l-1.16 2a.73.73 0 0 0 .26 1.01zM13.88 35.29a.72.72 0 0 0-1 .27l-1.16 2a.73.73 0 0 0 .27 1 .72.72 0 0 0 1-.27l1.16-2a.73.73 0 0 0-.28-.99zm-1-27.34a.72.72 0 0 0 1 .27.73.73 0 0 0 .27-1l-1.16-2a.72.72 0 0 0-1-.27.73.73 0 0 0-.27 1zM30.4 35.56a.72.72 0 0 0-1-.27.73.73 0 0 0-.27 1l1.16 2a.72.72 0 0 0 1 .27.73.73 0 0 0 .27-1zm7.7-5.09l-2-1.17a.72.72 0 0 0-1 .27.73.73 0 0 0 .27 1l2 1.17a.72.72 0 0 0 1-.27.73.73 0 0 0-.28-.98zM5.18 13.05l2 1.17a.72.72 0 0 0 1-.27.73.73 0 0 0-.27-1l-2-1.17a.72.72 0 0 0-1 .27.73.73 0 0 0 .27 1zm30.54 1.27a.72.72 0 0 0 .36-.1l2-1.17a.73.73 0 0 0 .27-1 .72.72 0 0 0-1-.27l-2 1.17a.73.73 0 0 0-.27 1 .72.72 0 0 0 .64.37zm-28.53 15l-2 1.17a.73.73 0 0 0-.27 1 .72.72 0 0 0 1 .27l2-1.17a.73.73 0 0 0 .27-1 .72.72 0 0 0-1-.27z"/></symbol></svg>