<svg id="Layer_1" data-name="Layer 1" xmlns="http://www.w3.org/2000/svg" viewBox="0 0 549.36 158.97"><defs><style>.cls-1{fill:#454545;}.cls-2{fill:#f26722;}.cls-3{fill:#e8e8e8;}.cls-4{fill:none;stroke:#232020;stroke-miterlimit:10;stroke-width:4.06px;}.cls-5{fill:#1a73ba;}</style></defs><title>foxword</title><path class="cls-1" d="M414.28,322.46c-11.09,0-18.31-7.93-18.31-17.68s7.34-17.68,18.31-17.68c11.21,0,18.26,7.93,18.26,17.68S425.15,322.46,414.28,322.46Zm0-26.46a8.79,8.79,0,1,0,9.11,8.79A9,9,0,0,0,414.28,296Z" transform="translate(-142.56 -198.58)"/><path class="cls-1" d="M589.13,322.46c-11.09,0-18.32-7.93-18.32-17.68s7.34-17.68,18.32-17.68c11.21,0,18.26,7.93,18.26,17.68S600,322.46,589.13,322.46Zm0-26.46a8.79,8.79,0,1,0,9.11,8.79A9,9,0,0,0,589.13,296Z" transform="translate(-142.56 -198.58)"/><path class="cls-1" d="M374.29,274.4H366v-6.07h-9.86v6.07h-8.29c-12.29,0-18.71,9.5-18.71,18.89s6.58,19.14,19.15,19.14h7.86v8.93H366v-8.93h7.86c12.57,0,19.15-9.63,19.15-19.14S386.57,274.4,374.29,274.4Zm-26,28.83c-7.85,0-10-6.25-10-9.94a10.37,10.37,0,0,1,2.39-6.79,9,9,0,0,1,7.13-2.89h8.29v19.63h-7.86Zm33.06-3a9.53,9.53,0,0,1-7.48,3H366V283.6h8.3c7.51,0,9.52,6.09,9.52,9.69A10.51,10.51,0,0,1,381.33,300.22Z" transform="translate(-142.56 -198.58)"/><polygon class="cls-1" points="330.14 89.93 317.95 89.93 307.18 101.69 305.75 101.69 305.75 89.93 295.9 89.93 295.9 122.77 305.75 122.77 305.75 110.89 310.75 110.89 319.09 122.77 330.13 122.77 317.3 103.95 330.14 89.93"/><path class="cls-1" d="M503.11,312.63a47.82,47.82,0,0,1-10.4,1.4,9.11,9.11,0,0,1-9-9.15,8.78,8.78,0,0,1,8.88-8.89,90.07,90.07,0,0,1,10.89,1.22l1.49-8.87a122.53,122.53,0,0,0-12.38-1.06c-10.88,0-18.21,7.74-18.21,17.6s7.33,17.59,18.21,17.59a45.76,45.76,0,0,0,12.22-1.77Z" transform="translate(-142.56 -198.58)"/><path class="cls-1" d="M548.35,287.6c-0.86,0-3-.11-6.7,0V274.41h-9.93v13.17c-3.74-.09-5.84,0-6.7,0-11.25,0-17.7,6.53-17.7,16.5s5,17.92,18.1,17.92h6.3v13.19h9.93V322H548C561,322,566,314.08,566,304.1S559.6,287.6,548.35,287.6Zm-22.86,26.29c-5.15,0-8.8-4.44-8.8-9.59s4-8.3,8.5-8.4c2.36,0,5.17.1,6.52,0.19v17.73C528.72,314,526.69,313.89,525.49,313.89Zm22.38,0c-1.19,0-3.22.08-6.22-.06V296.09c1.35-.09,4.16-0.24,6.52-0.19,4.55,0.1,8.5,3.25,8.5,8.4S553,313.89,547.87,313.89Z" transform="translate(-142.56 -198.58)"/><path class="cls-1" d="M612.25,334.53h10V321.38s4.25,0,7.16,0c13.17,0,18.24-7.67,18.24-17.73s-6.23-16.37-17.58-16.37c-2.22,0-17.83,1.17-17.83,1.17v46.11Zm26-30.23a8.5,8.5,0,0,1-8.87,8.86c-1.31,0-3.6.13-7.08-.07V295.83s6.82-.19,7.64-0.2C634.49,295.6,638.21,299.12,638.21,304.3Z" transform="translate(-142.56 -198.58)"/><path class="cls-1" d="M685.93,288.57v24.95h6l-1.68,17.43h-8v-9.59H659.16v9.59h-8.09l-2-17.43h6.46a121.09,121.09,0,0,0,4.35-24.95h26Zm-17.73,7.57c-0.51,3.7-2.1,12.94-3.14,17.38h11V296.13h-7.9Z" transform="translate(-142.56 -198.58)"/><path class="cls-2" d="M160.68,293.43h0c0.56-.82,13.27-20.73,21.64-31l2.33-.34a59.42,59.42,0,0,0-33.56-29.84,59.22,59.22,0,0,0,5.31,68.69Q158.48,297.14,160.68,293.43Z" transform="translate(-142.56 -198.58)"/><path class="cls-1" d="M153.16,237.71a49.83,49.83,0,0,1,9.14,5.65l1-5.17a59,59,0,0,0-12.2-5.95l-0.1.1a58.89,58.89,0,0,0-5.86,13.11l4.25,3.57A52,52,0,0,1,153.16,237.71Z" transform="translate(-142.56 -198.58)"/><path class="cls-3" d="M179,266.71a50,50,0,0,0-25.82-29,52.14,52.14,0,0,0,7.54,55.7C161.26,292.59,171,277.38,179,266.71Z" transform="translate(-142.56 -198.58)"/><path class="cls-2" d="M253.08,262.41c8.38,10.3,21.07,30.19,21.64,31h0q2.22,3.73,4.31,7.54a59.23,59.23,0,0,0,5.35-68.75,59.42,59.42,0,0,0-33.56,29.85Z" transform="translate(-142.56 -198.58)"/><path class="cls-1" d="M282.32,237.71A51.89,51.89,0,0,1,286.06,249l4.26-3.58a58.88,58.88,0,0,0-5.86-13.11l-0.1-.1a59,59,0,0,0-12.2,5.95l1,5.17A49.73,49.73,0,0,1,282.32,237.71Z" transform="translate(-142.56 -198.58)"/><path class="cls-3" d="M274.72,293.43h0l0,0a52.13,52.13,0,0,0,7.57-55.75,50,50,0,0,0-25.85,29.06C264.51,277.49,274.22,292.71,274.72,293.43Z" transform="translate(-142.56 -198.58)"/><polygon class="cls-1" points="75.16 0 16.67 29.86 16.67 31.24 75.16 61.11 133.66 31.24 133.66 29.86 75.16 0"/><polygon points="75.16 61.11 133.66 31.24 75.16 1.38 16.67 31.24 75.16 61.11"/><path class="cls-2" d="M274.73,293.43c0.68,1.15-12.86-20.21-21.64-31a230.89,230.89,0,0,0-70.76,0c-8.37,10.29-21.08,30.2-21.64,31A97.15,97.15,0,0,1,212,350.58h11.46A97.15,97.15,0,0,1,274.73,293.43Z" transform="translate(-142.56 -198.58)"/><path class="cls-2" d="M160.69,293.43h0C160.65,293.48,160.66,293.47,160.69,293.43Z" transform="translate(-142.56 -198.58)"/><path class="cls-4" d="M162.14,312.12" transform="translate(-142.56 -198.58)"/><circle class="cls-2" cx="52.89" cy="101.09" r="11.58"/><circle class="cls-3" cx="52.89" cy="101.09" r="10.25"/><path d="M199.66,295.63a2.79,2.79,0,1,1-5-1.74A5.85,5.85,0,1,0,199.66,295.63Z" transform="translate(-142.56 -198.58)"/><circle class="cls-2" cx="96.02" cy="101.09" r="11.58"/><circle class="cls-3" cx="96.02" cy="101.09" r="10.25"/><path d="M242.8,295.63a2.79,2.79,0,1,1-5-1.74A5.85,5.85,0,1,0,242.8,295.63Z" transform="translate(-142.56 -198.58)"/><path class="cls-1" d="M273.66,291.81a47.49,47.49,0,0,0,5.65-46,31.64,31.64,0,0,0-21,23.43C264.44,277.67,271.11,287.88,273.66,291.81Z" transform="translate(-142.56 -198.58)"/><path class="cls-1" d="M177.2,269.13a31.64,31.64,0,0,0-21-23.35,47.48,47.48,0,0,0,5.61,46C164.36,287.78,171,277.57,177.2,269.13Z" transform="translate(-142.56 -198.58)"/><path class="cls-1" d="M187.41,261.69a230.29,230.29,0,0,1,60.62,0V238.61h-0.08a4.73,4.73,0,0,0,.08-0.67c0-7.26-13.57-13.16-30.31-13.16s-30.31,5.9-30.31,13.16a5.79,5.79,0,0,0,.08.67h-0.08v23.08Z" transform="translate(-142.56 -198.58)"/><path class="cls-3" d="M274.73,293.43a97.24,97.24,0,0,0-46.25,45,10.65,10.65,0,0,1,3.87,5.8,67.3,67.3,0,0,1,57.23-21.7A255.14,255.14,0,0,0,274.73,293.43Z" transform="translate(-142.56 -198.58)"/><path class="cls-1" d="M262.61,296.63h-2.14a22.15,22.15,0,1,0,0,6.62h2.14a2.93,2.93,0,0,0,2.91-2.92v-0.78A2.92,2.92,0,0,0,262.61,296.63Zm-24,20.2a16.89,16.89,0,1,1,16.89-16.89A16.91,16.91,0,0,1,238.56,316.83Z" transform="translate(-142.56 -198.58)"/><path class="cls-3" d="M206.93,338.4a97.24,97.24,0,0,0-46.25-45,255.6,255.6,0,0,0-14.86,29.07,68.24,68.24,0,0,1,7.33-.4,67.23,67.23,0,0,1,49.91,22.11A10.65,10.65,0,0,1,206.93,338.4Z" transform="translate(-142.56 -198.58)"/><path class="cls-1" d="M264.54,324.46a67.38,67.38,0,0,0-32.19,19.75,8.8,8.8,0,0,1,.25,2c0,0.14,0,.28,0,0.42a36.28,36.28,0,0,0,4.83.34,37.07,37.07,0,0,0,30.07-15.36Q266.06,328,264.54,324.46Z" transform="translate(-142.56 -198.58)"/><path class="cls-1" d="M202.81,346.22a8.77,8.77,0,0,1,.25-2,67.38,67.38,0,0,0-32.16-19.75q-1.52,3.54-2.93,7.15A37.07,37.07,0,0,0,198,347a36.07,36.07,0,0,0,4.8-.33C202.83,346.5,202.81,346.36,202.81,346.22Z" transform="translate(-142.56 -198.58)"/><ellipse cx="75.15" cy="147.63" rx="14.89" ry="11.34"/><ellipse class="cls-3" cx="75.15" cy="142.82" rx="4.44" ry="3.38"/><path class="cls-5" d="M172.87,244.18V222a2,2,0,0,0-2-2h-0.54a2,2,0,0,0-2,2V244c-2.08,4.07-5.91,11.6-6.66,13.37a18,18,0,0,0,17.77,0C178.69,255.61,175,248.29,172.87,244.18Z" transform="translate(-142.56 -198.58)"/></svg>