<svg id="dnevnik" data-name="dnevnik" xmlns="http://www.w3.org/2000/svg" viewBox="0 0 118.14 136.55"><defs><style>.cls-1{fill:#0273b2;}.cls-1,.cls-2,.cls-3,.cls-4,.cls-5,.cls-6{fill-rule:evenodd;}.cls-2{fill:#bc75b0;}.cls-3{fill:#f6921e;}.cls-4{fill:#ffd10e;}.cls-5{fill:#bed63a;}.cls-6{fill:#44c2ea;}</style></defs><title>dnevnik</title><path class="cls-1" d="M187.93,391.33c-3.91,12-13.78,20.95-27.32,23.52-13.19,2.59-25.54,1.08-32.84-3.2-5.65-3.31-7.86-6.7-7.83-13.18-0.47-9.23,1-29.26,5.65-37.35a9.79,9.79,0,0,1,5.86-4.45c4.79-1.57,9.15-1.54,8.63.19-2.4,8-8,32.38-5,39.34,2.15,4.92,10.88,6.5,18.84,5.91,9.88-.74,16.88-4.33,20.47-14.1a28.39,28.39,0,0,0-2.27-23.68c-8.28-14.28-31.87-16.34-45.7-11.8-2.25.74-2.8,1.75-3.47,0.14-1.85-4.44,1.24-7.67,6.61-9.83,12.14-4.88,30.21-2.44,41.85,4C189,356.57,193.17,375.32,187.93,391.33Z" transform="translate(-92.19 -279.57)"/><path class="cls-2" d="M114.75,374.55a21.46,21.46,0,0,1-2.87-3.13q-4-5.47-8.07-10.89a20.05,20.05,0,0,0-2.09-1.9,7.63,7.63,0,0,0-4.59-2,4.53,4.53,0,0,0-3.27,1.42,6.32,6.32,0,0,0-1.64,4.63,14.13,14.13,0,0,0,2.16,6c0.75,1.36,1.56,2.68,2.33,4,2.16,3.77,4.26,7.64,6.73,11.21a94.78,94.78,0,0,0,7.7,10.11c2.75,2.87,4.81,2.73,4.63-1.07a106.11,106.11,0,0,1-.16-10.78C115.95,378.88,117.25,376.75,114.75,374.55Z" transform="translate(-92.19 -279.57)"/><path class="cls-3" d="M128.05,334.19a2.42,2.42,0,0,0,1.34,1.44,3.51,3.51,0,0,0,2.54-.16c1-.3,1.82-0.42,2.79-0.68a17.87,17.87,0,0,1,3.1-.33c0.89-.08,1.8,0,2.43-0.71,1.21-1.35.43-5.42,0.17-7.21-0.54-3.6-3-20.73-3.58-25.83-0.45-4.19-.66-9.21-4.56-12.09-2.63-1.95-7.12-1-8.28,2.16-1.29,3.57-1.19,7-.89,10.72,0.51,6.44,1.61,12.94,2.52,19.34,0.42,2.92.79,5.8,1.21,8.72A20.58,20.58,0,0,0,128.05,334.19Z" transform="translate(-92.19 -279.57)"/><path class="cls-4" d="M162.06,279.62a5.3,5.3,0,0,1,3.58,2.4,6.82,6.82,0,0,1,1.36,4.4c0,5.14-4.1,45.59-4.36,46.58s-0.3,1.86-1.39,2.12a5.83,5.83,0,0,1-2.6-.41c-0.89-.18-1.89-0.39-2.8-0.48-1.87-.19-3.62-0.17-5.5-0.35s-2.36-.83-2.2-2.55c0.08-.85.08-1.72,0.14-2.58,0.53-8.46,1.45-16.91,2.59-25.31,0.57-4.2,1.19-8.4,2.05-12.56,0.5-2.41.89-5.27,2.25-7.43C156.81,280.87,159.53,279.24,162.06,279.62Z" transform="translate(-92.19 -279.57)"/><path class="cls-5" d="M188.4,292.68a5.64,5.64,0,0,1,3,1.27c2,1.51,1.59,6.44,1.1,8.94-1.22,6.16-9.83,34.83-10.33,36s-1.32,3.88-2.47,4.2c-1.42.39-2.88-.7-3.91-1.4a25.08,25.08,0,0,0-3.4-2,17.76,17.76,0,0,0-2.5-1c-0.76-.24-1.88-0.54-2.07-1.41s0.61-3,1-4c0.59-1.69,1-3,1.53-4.68,1.24-4.31,2.69-8.59,4.12-12.83q2-5.78,4.06-11.52a47.78,47.78,0,0,1,2.14-5.58c1.11-2.15,2-3.82,4.24-5.07A6.35,6.35,0,0,1,188.4,292.68Z" transform="translate(-92.19 -279.57)"/><path class="cls-6" d="M209.36,322.25c-2.23-3-5.47-1.37-7.48.81-2.23,2.43-13,19.37-14.63,21.76-0.82,1.21-1.74,2.36-1.37,3.94s1.61,3.17,2.51,4.56a21.78,21.78,0,0,1,1.3,2.12,2.86,2.86,0,0,0,1.37,1.47c0.7,0.31,1.55.14,2.64-.89a26.64,26.64,0,0,0,3.22-4.46c2.43-3.49,4.62-7.15,6.73-10.84,1.42-2.48,2.79-5,4.16-7.51C209.38,330.36,211.66,325.34,209.36,322.25Z" transform="translate(-92.19 -279.57)"/></svg>