<svg viewBox="0 0 35.47 43.19">
  <g id="grammotnosti">
    <path class="grammotnosti" d="M292.55,214.78H268.84a2.88,2.88,0,0,0-2.92,2.84v0h0a2.88,2.88,0,0,0-2.92,2.84v0h0A2.88,2.88,0,0,0,260,223.4v31.74a2.88,2.88,0,0,0,2.92,2.84h23.71a2.88,2.88,0,0,0,2.92-2.84v0h0a2.88,2.88,0,0,0,2.92-2.84v0h0a2.88,2.88,0,0,0,2.92-2.84V217.62A2.88,2.88,0,0,0,292.55,214.78Zm-5.93,41.84H262.92a1.51,1.51,0,0,1-1.53-1.49V243.55h26.77v11.59h0A1.51,1.51,0,0,1,286.63,256.62Zm1.53-14.43H261.39V223.4a1.51,1.51,0,0,1,1.53-1.49h23.71a1.51,1.51,0,0,1,1.53,1.49v18.8Zm3,10.05a1.51,1.51,0,0,1-1.53,1.49h0V240.66h1.57v11.59Zm0-12.94h-1.57V223.4a2.88,2.88,0,0,0-2.92-2.84H264.35v0a1.51,1.51,0,0,1,1.53-1.49h23.71a1.51,1.51,0,0,1,1.53,1.49v18.8Zm3,10.05a1.51,1.51,0,0,1-1.53,1.49h0V237.78h1.57v11.59Zm0-12.94h-1.57V220.51a2.88,2.88,0,0,0-2.92-2.84H267.32v0a1.51,1.51,0,0,1,1.53-1.49h23.71a1.51,1.51,0,0,1,1.53,1.49v18.8Zm-21.3-10a2.17,2.17,0,0,0-2.1-1.55h-1.45a2.17,2.17,0,0,0-2.1,1.55l-3.4,11.93a0.67,0.67,0,0,0,.48.83,0.7,0.7,0,0,0,.86-0.47l0.89-3.11h8l0.89,3.11a0.69,0.69,0,0,0,.67.5l0.19,0a0.67,0.67,0,0,0,.48-0.83Zm-6.44,7.83,2.13-7.46a0.79,0.79,0,0,1,.76-0.56h1.45a0.79,0.79,0,0,1,.76.56l2.13,7.46h-7.23Zm18.8,3.61a0,0,0,0,1,0,0v-6.49a0.69,0.69,0,0,0-1.39,0v0.29a4.07,4.07,0,0,0-2.64-1,4,4,0,0,0-4,3.92v0.72a4,4,0,0,0,4,3.92,4.07,4.07,0,0,0,2.7-1,1.43,1.43,0,0,0,1.38,1A0.68,0.68,0,1,0,285.14,237.87Zm-1.44-2.57a2.64,2.64,0,0,1-5.28,0v-0.72a2.64,2.64,0,0,1,5.28,0v0.72Zm0.69,11.23H265.14a0.68,0.68,0,1,0,0,1.35H284.4A0.68,0.68,0,1,0,284.4,246.52ZM277,252.3H265.14a0.68,0.68,0,1,0,0,1.35H277A0.68,0.68,0,1,0,277,252.3Zm-7.41-1.53a0.68,0.68,0,1,0,0-1.35h-4.45a0.68,0.68,0,1,0,0,1.35h4.45Zm14.82-1.35H272.55a0.68,0.68,0,1,0,0,1.35H284.4A0.68,0.68,0,1,0,284.4,249.41Z" transform="translate(-260 -214.78)"/>
  </g>
</svg>