<svg viewBox="0 0 36.34 43.19">
  <g id="Lang">
    <path class="lang" d="M771.66,220.93a1.16,1.16,0,0,0,0-2.28l-17.09-3.13a0.69,0.69,0,0,0-.25,0l-17.09,3.13a1.16,1.16,0,0,0,0,2.28l7.73,1.42-0.42,3.36a2.81,2.81,0,0,0,.18,1.4A17.15,17.15,0,0,0,737,241.44a17.44,17.44,0,0,0,34.88,0,17,17,0,0,0-1.46-6.91v-3.19a2.1,2.1,0,0,0-.57-1.44,2.1,2.1,0,0,0,.57-1.44,2.12,2.12,0,0,0-1.46-2v-5Zm-26.15,7.28a2.88,2.88,0,0,0,1.23.62l0.65,0.15a18.35,18.35,0,0,0-1.46,3q-1.86-.37-3.69-0.91A16.14,16.14,0,0,1,745.51,228.21Zm0.39-2.34,0.41-3.28,7.45,1.37V229l-0.15,0-6.57-1.5A1.49,1.49,0,0,1,745.89,225.87Zm-4.56,6.34q2,0.63,4.15,1.05a27.35,27.35,0,0,0-1.18,7.49h-5.91A15.73,15.73,0,0,1,741.33,232.22Zm0,18.43a15.72,15.72,0,0,1-3-8.54h5.91a27.25,27.25,0,0,0,1.18,7.49Q743.39,250,741.34,250.65Zm0.9,1.14q1.82-.53,3.68-0.9a18.86,18.86,0,0,0,1.23,2.61,13,13,0,0,0,2.38,3.09A16.13,16.13,0,0,1,742.25,251.79Zm11.51,5.51c-2-.29-3.93-1.85-5.42-4.47a17.37,17.37,0,0,1-1-2.2,43.52,43.52,0,0,1,6.47-.59v7.25Zm0-8.6a44.9,44.9,0,0,0-6.93.64,25.78,25.78,0,0,1-1.16-7.23h8.1v6.59Zm0-7.94h-8.1a25.89,25.89,0,0,1,1.16-7.23,44.88,44.88,0,0,0,6.93.64v6.59Zm0-7.94h0a43.5,43.5,0,0,1-6.47-.59,16.38,16.38,0,0,1,1.5-2.94l4.51,1,0.45,0.08v2.41Zm1.37,24.48v-7.25a43.53,43.53,0,0,1,6.47.59,17.38,17.38,0,0,1-1,2.2C759.05,255.45,757.15,257,755.13,257.3Zm11-28.65a17.5,17.5,0,0,0-2-1.54,2.81,2.81,0,0,0,.18-1.4l-0.42-3.36,3.68-.67v4.77a2.12,2.12,0,0,0-1.46,2C766.15,228.52,766.15,228.58,766.16,228.65Zm0.1,2a2.09,2.09,0,0,0-.11.56q-1.58.44-3.19,0.76a18.35,18.35,0,0,0-1.46-3l0.65-.15a2.88,2.88,0,0,0,1.23-.62A16.13,16.13,0,0,1,766.26,230.65Zm-4.66,1.58a43.53,43.53,0,0,1-6.47.59v-2.41l0.45-.08,4.51-1A16.37,16.37,0,0,1,761.6,232.23Zm0.24-4.72-6.57,1.5-0.15,0V224l7.45-1.37,0.41,3.28A1.49,1.49,0,0,1,761.84,227.51Zm0.22,6a25.87,25.87,0,0,1,1.17,7.23h-8.1v-6.59A44.92,44.92,0,0,0,762.06,233.53Zm1.17,8.59a25.78,25.78,0,0,1-1.16,7.23,44.89,44.89,0,0,0-6.93-.64v-6.59h8.1Zm-3.87,14.48a13,13,0,0,0,2.38-3.09,18.87,18.87,0,0,0,1.23-2.61q1.86,0.37,3.68.9A16.13,16.13,0,0,1,759.35,256.59Zm8.19-5.94q-2-.62-4.13-1.05a27.25,27.25,0,0,0,1.18-7.49h5.91A15.72,15.72,0,0,1,767.54,250.65Zm3-9.89h-5.91a27.36,27.36,0,0,0-1.18-7.49q1.38-.28,2.74-0.65v2.32a0.68,0.68,0,0,0,.68.68h2.58A15.61,15.61,0,0,1,770.5,240.76Zm-1.44-6.49h-1.55v-2.93h0a0.77,0.77,0,0,1,1.55,0v2.93Zm0-5.82a0.77,0.77,0,1,1-.77-0.77A0.77,0.77,0,0,1,769.06,228.45Zm-14.62-5.74-15.92-2.92,15.92-2.92,15.92,2.92Z" transform="translate(-736.28 -215.51)"/>
  </g>
</svg>