<svg viewBox="0 0 43.26 29.37">
  <g id="student">
    <path class="student" d="M1287.37,249.37a2.17,2.17,0,1,0-2.12-2.17A2.15,2.15,0,0,0,1287.37,249.37Zm0-3a0.78,0.78,0,1,1-.77.78A0.78,0.78,0,0,1,1287.37,246.42Zm20.23,6h-8.7v-9.93a3.63,3.63,0,0,0-2.2-3.36l-4.65-2a17.08,17.08,0,0,0,4-1.27,1.68,1.68,0,0,0,.95-1.52c0-5.46-.63-9.3-1.84-12.07-1.54-3.5-4.15-5.27-7.77-5.27s-6.24,1.77-7.77,5.27c-1.22,2.77-1.8,6.6-1.84,12.07a1.68,1.68,0,0,0,.95,1.52,17.08,17.08,0,0,0,4,1.27l-4.65,2a3.63,3.63,0,0,0-2.2,3.36v9.93h-8.7a1.42,1.42,0,0,0-1.4,1.43v1.48a1.42,1.42,0,0,0,1.4,1.43h40.46a1.42,1.42,0,0,0,1.4-1.43v-1.48A1.42,1.42,0,0,0,1307.6,252.41ZM1293,239l3.21,1.37a2.25,2.25,0,0,1,1.36,2.09v9.93h-1.7a2.2,2.2,0,0,0,.14-0.78v-8.85a2.15,2.15,0,0,0-2.12-2.17h-2.3A17.86,17.86,0,0,0,1293,239Zm-8.12-2.64V236l0.95,0.54a3.15,3.15,0,0,0,3.14,0l0.95-.54v0.42a2,2,0,0,0,1.2,1.84l0.58,0.25a15.52,15.52,0,0,1-2.14,2.14h-4.32a15.5,15.5,0,0,1-2.14-2.14l0.58-.25A2,2,0,0,0,1284.86,236.38Zm-1.72-3a1.92,1.92,0,0,1-1-1.5l-0.46-5.12c1.73-.2,6.33-0.85,9.17-2.27a5,5,0,0,0,2.14,2.1l-0.47,5.29a1.92,1.92,0,0,1-1,1.5l-3.33,1.89a1.83,1.83,0,0,1-1.82,0Zm10.74,8.59h0a0.78,0.78,0,0,1,.77.78v8.85a0.78,0.78,0,0,1-.77.78h-13a0.78,0.78,0,0,1-.77-0.78v-8.85a0.78,0.78,0,0,1,.77-0.78h13Zm-14.6-7.38a0.29,0.29,0,0,1-.17-0.26c0-5.27.59-8.92,1.72-11.51,1.32-3,3.46-4.45,6.54-4.45s5.22,1.46,6.54,4.45c1.14,2.59,1.69,6.25,1.72,11.51a0.29,0.29,0,0,1-.17.26,16.28,16.28,0,0,1-4.22,1.27V235.2l1-.58a3.3,3.3,0,0,0,1.65-2.59l0.52-5.8a0.69,0.69,0,0,0-.46-0.72,3.76,3.76,0,0,1-2.13-2.17,0.69,0.69,0,0,0-.41-0.43,0.67,0.67,0,0,0-.58.06c-3,1.85-9.86,2.51-9.93,2.51a0.69,0.69,0,0,0-.61.75l0.52,5.8a3.3,3.3,0,0,0,1.65,2.59l1,0.58v0.69A16.29,16.29,0,0,1,1279.28,234.61Zm-2.08,7.87a2.25,2.25,0,0,1,1.36-2.09l3.21-1.37a17.85,17.85,0,0,0,1.4,1.58h-2.3a2.15,2.15,0,0,0-2.12,2.17v8.85a2.2,2.2,0,0,0,.14.78h-1.7v-9.93Zm30.41,12.88h-40.46a0,0,0,0,1,0,0v-1.48a0,0,0,0,1,0,0h40.46a0,0,0,0,1,0,0v1.48h0A0,0,0,0,1,1307.6,255.36Z" transform="translate(-1265.74 -217)"/>
  </g>
</svg>