<svg viewBox="0 0 43.26 29.37">
  <g id="reading"><path class="reading" d="M526.36,624.53h-0.77v-0.79a0.67,0.67,0,0,0-.53-0.66,61.72,61.72,0,0,0-11.71-1.45c-3.81,0-5.7.79-6.5,1.28-0.8-.49-2.69-1.28-6.5-1.28a61.73,61.73,0,0,0-11.71,1.45,0.67,0.67,0,0,0-.53.66v0.79h-0.77a2.12,2.12,0,0,0-2.12,2.11v22.25a2.12,2.12,0,0,0,2.12,2.11h39a2.12,2.12,0,0,0,2.12-2.11V626.64A2.12,2.12,0,0,0,526.36,624.53Zm-18.83-.46c0.7-.45,2.54-1.09,5.82-1.09a59.77,59.77,0,0,1,10.88,1.31v20.19a59.56,59.56,0,0,0-10.88-1.27,14.75,14.75,0,0,0-5.82.93V624.07Zm0,21.57c0.7-.45,2.54-1.09,5.82-1.09a59.77,59.77,0,0,1,10.88,1.31v0.94H507.53v-1.15Zm-18.06-21.35A59.72,59.72,0,0,1,500.35,623c3.28,0,5.12.65,5.82,1.09v20.06a14.75,14.75,0,0,0-5.82-.93,59.56,59.56,0,0,0-10.88,1.27V624.28Zm0,21.57a59.71,59.71,0,0,1,10.88-1.31c3.28,0,5.12.65,5.82,1.09v1.15H489.47v-0.94ZM504,649.65H487.34a0.77,0.77,0,0,1-.77-0.76V626.64a0.77,0.77,0,0,1,.77-0.76h0.77v21.58a0.68,0.68,0,0,0,.68.67H504v1.53Zm4.33,0h-3v-1.53h3v1.53Zm18.78-.76h0a0.77,0.77,0,0,1-.77.76H509.7v-1.53h15.22a0.68,0.68,0,0,0,.68-0.67V625.88h0.77a0.77,0.77,0,0,1,.77.76v22.25Zm-27.69-21a0.68,0.68,0,0,0-.69-0.66,53.85,53.85,0,0,0-7.32.75,0.67,0.67,0,0,0,.11,1.34h0.11a52.55,52.55,0,0,1,7.13-.73A0.68,0.68,0,0,0,499.44,627.89Zm2.15,0.78c0.49,0,1,.11,1.38.2h0.13a0.67,0.67,0,0,0,.13-1.33c-0.47-.09-1-0.16-1.51-0.22A0.67,0.67,0,1,0,501.58,628.67Zm-10,6.39h0.11c1.78-.29,3.46-0.5,5-0.62a0.67,0.67,0,1,0-.11-1.34c-1.57.12-3.29,0.34-5.11,0.63A0.67,0.67,0,0,0,491.54,635.06Zm11.56-.44a0.67,0.67,0,0,0,.13-1.33,19.84,19.84,0,0,0-3.74-.32,0.67,0.67,0,1,0,0,1.35,18.48,18.48,0,0,1,3.48.3h0.13ZM498,638.74a56.62,56.62,0,0,0-6.58.72,0.67,0.67,0,0,0,.11,1.34h0.11a55.3,55.3,0,0,1,6.42-.71A0.67,0.67,0,1,0,498,638.74Zm2.88,1.35a16.23,16.23,0,0,1,2.08.25h0.13a0.67,0.67,0,0,0,.13-1.33,17.6,17.6,0,0,0-2.26-.28A0.67,0.67,0,1,0,500.89,640.1Zm14-11.52a52.53,52.53,0,0,1,7.13.73h0.11a0.67,0.67,0,0,0,.11-1.34,53.88,53.88,0,0,0-7.32-.75A0.67,0.67,0,1,0,514.92,628.58Zm-4.32.3h0.13c0.43-.08.9-0.15,1.38-0.2a0.67,0.67,0,1,0-.13-1.34c-0.53.05-1,.13-1.51,0.22A0.67,0.67,0,0,0,510.61,628.88Zm11.67,4.85c-1.82-.3-3.54-0.51-5.11-0.63a0.67,0.67,0,1,0-.11,1.34c1.54,0.12,3.22.33,5,.62h0.11A0.67,0.67,0,0,0,522.28,633.73Zm-11.67.9h0.13a18.48,18.48,0,0,1,3.48-.3,0.67,0.67,0,1,0,0-1.35,19.85,19.85,0,0,0-3.74.32A0.67,0.67,0,0,0,510.61,634.62Zm11.67,4.85a56.62,56.62,0,0,0-6.58-.72,0.67,0.67,0,1,0-.06,1.34,55.23,55.23,0,0,1,6.42.71h0.11A0.67,0.67,0,0,0,522.28,639.47Zm-9.54-.71a17.6,17.6,0,0,0-2.26.28,0.67,0.67,0,0,0,.13,1.33h0.13a16.19,16.19,0,0,1,2.08-.25A0.67,0.67,0,1,0,512.73,638.75Z" transform="translate(-485.22 -621.63)"/>
  </g>
</svg>