<svg viewBox="0 0 43.26 46.65">
  <g id="fantazia">
    <path class="fantazia" d="M1023.42,624.92a13.72,13.72,0,0,0-10.84-3.47,14,14,0,0,0-4.35,26.52,2.37,2.37,0,0,1,1.34,2.14v4.7a2.29,2.29,0,0,0,1.55,2.17v0.95a2.28,2.28,0,0,0,2.27,2.29h1.55a2.28,2.28,0,0,0,2.27-2.29V657a2.29,2.29,0,0,0,1.55-2.17v-4.7a2.35,2.35,0,0,1,1.31-2.13A14,14,0,0,0,1023.42,624.92Zm-8.49,33.83h-1.55a0.83,0.83,0,0,1-.82-0.83V657.1h3.19v0.83h0A0.83,0.83,0,0,1,1014.93,658.76Zm1.55-3.12h-4.65a0.83,0.83,0,0,1-.82-0.83v-2.39h6.29v2.39h0A0.83,0.83,0,0,1,1016.48,655.64Zm8.13-13.52a12.49,12.49,0,0,1-5.16,4.54,3.82,3.82,0,0,0-2.15,3.45V651H1011v-0.85a3.84,3.84,0,0,0-2.17-3.46,12.53,12.53,0,0,1,3.89-23.75,13,13,0,0,1,1.44-.08,12.25,12.25,0,0,1,8.28,3.19A12.57,12.57,0,0,1,1024.6,642.13Zm10.46-7.52h-4.65a0.73,0.73,0,0,0,0,1.46h4.65A0.73,0.73,0,0,0,1035.06,634.61Zm-36.44.73a0.73,0.73,0,0,0-.73-0.73h-4.65a0.73,0.73,0,0,0,0,1.46h4.65A0.73,0.73,0,0,0,998.62,635.34Zm15.53-15.63a0.73,0.73,0,0,0,.73-0.73V614.3a0.73,0.73,0,1,0-1.45,0V619A0.73,0.73,0,0,0,1014.15,619.71Zm0,7.11a2.19,2.19,0,0,0-1.6.68,2.21,2.21,0,0,0-.61,1.63l0.42,10.16a1.5,1.5,0,0,0,1.5,1.45h0.58a1.5,1.5,0,0,0,1.5-1.45l0.42-10.16a2.21,2.21,0,0,0-.61-1.63A2.19,2.19,0,0,0,1014.15,626.82Zm0.34,12.42a0,0,0,0,1,0,0h-0.58a0,0,0,0,1,0,0l-0.42-10.16a0.76,0.76,0,0,1,.21-0.56,0.76,0.76,0,0,1,1.1,0,0.76,0.76,0,0,1,.21.56Zm-0.34,3.16a1.9,1.9,0,1,0,1.89,1.9A1.9,1.9,0,0,0,1014.15,642.4Zm0,2.34a0.44,0.44,0,1,1,.44-0.44A0.44,0.44,0,0,1,1014.15,644.74Zm7.77-22.93a0.72,0.72,0,0,0,1-.27l1.16-2a0.73,0.73,0,0,0-.27-1,0.72,0.72,0,0,0-1,.27l-1.16,2A0.73,0.73,0,0,0,1021.92,621.8Zm-15.53,27.07a0.72,0.72,0,0,0-1,.27l-1.16,2a0.73,0.73,0,0,0,.27,1,0.72,0.72,0,0,0,1-.27l1.16-2A0.73,0.73,0,0,0,1006.39,648.87Zm-1-27.34a0.72,0.72,0,0,0,1,.27,0.73,0.73,0,0,0,.27-1l-1.16-2a0.72,0.72,0,0,0-1-.27,0.73,0.73,0,0,0-.27,1Zm17.52,27.61a0.72,0.72,0,0,0-1-.27,0.73,0.73,0,0,0-.27,1l1.16,2a0.72,0.72,0,0,0,1,.27,0.73,0.73,0,0,0,.27-1Zm7.7-5.09-2-1.17a0.72,0.72,0,0,0-1,.27,0.73,0.73,0,0,0,.27,1l2,1.17a0.72,0.72,0,0,0,1-.27A0.73,0.73,0,0,0,1030.61,644.06ZM997.7,626.62l2,1.17a0.72,0.72,0,0,0,1-.27,0.73,0.73,0,0,0-.27-1l-2-1.17a0.72,0.72,0,0,0-1,.27A0.73,0.73,0,0,0,997.7,626.62Zm30.54,1.27a0.72,0.72,0,0,0,.36-0.1l2-1.17a0.73,0.73,0,0,0,.27-1,0.72,0.72,0,0,0-1-.27l-2,1.17a0.73,0.73,0,0,0-.27,1A0.72,0.72,0,0,0,1028.24,627.89Zm-28.53,15-2,1.17a0.73,0.73,0,0,0-.27,1,0.72,0.72,0,0,0,1,.27l2-1.17a0.73,0.73,0,0,0,.27-1A0.72,0.72,0,0,0,999.71,642.89Z" transform="translate(-992.52 -613.57)"/>
  </g>
</svg>